# xmcd
#
# Track frame offsets:
#	150
#	19932
#	37873
#	64526
#
# Disc length: 1651 seconds
#
# Revision: 0
# Processed by: cddbd v1.5PL3 Copyright (c) Steve Scherf et al.
# Submitted via: dBpowerAMP V4.0
#
DISCID=26067104
DTITLE=Marlango - Enjoy the ride SG
DYEAR=2003
DGENRE=
TTITLE0=Enjoy the ride
TTITLE1=Green on blue
TTITLE2=Enjoy the ride demo
TTITLE3=DATA
EXTD=
EXTT0=
EXTT1=
EXTT2=
EXTT3=
PLAYORDER=
